<svg width="84" height="78" viewBox="0 0 84 78" fill="none" xmlns="http://www.w3.org/2000/svg">
<path d="M22.7293 58.919L27.9377 52.4107L11.171 38.9982L27.9377 25.5857L22.7293 19.0773L1.896 35.744C1.40785 36.1344 1.01378 36.6295 0.742969 37.1928C0.472157 37.7561 0.331543 38.3731 0.331543 38.9982C0.331543 39.6232 0.472157 40.2402 0.742969 40.8035C1.01378 41.3668 1.40785 41.862 1.896 42.2523L22.7293 58.919ZM61.271 19.0773L56.0627 25.5857L72.8293 38.9982L56.0627 52.4107L61.271 58.919L82.1043 42.2523C82.5925 41.862 82.9866 41.3668 83.2574 40.8035C83.5282 40.2402 83.6688 39.6232 83.6688 38.9982C83.6688 38.3731 83.5282 37.7561 83.2574 37.1928C82.9866 36.6295 82.5925 36.1344 82.1043 35.744L61.271 19.0773ZM54.4002 2.39818L37.7335 77.3982L29.596 75.5898L46.2627 0.589844L54.4002 2.39818Z" fill="#BDFF00"/>
</svg>
