<svg width="120" height="120" viewBox="0 0 120 120" fill="none" xmlns="http://www.w3.org/2000/svg">
<rect width="120" height="120" rx="60" fill="white"/>
<path fill-rule="evenodd" clip-rule="evenodd" d="M97.0201 60.8874C97.0201 58.122 96.7719 55.4629 96.311 52.9102H59.5801V67.9961H80.5692C79.6651 72.8711 76.9173 77.0015 72.7869 79.767V89.5524H85.391C92.7655 82.7629 97.0201 72.7647 97.0201 60.8874Z" fill="#4285F4"/>
<path fill-rule="evenodd" clip-rule="evenodd" d="M59.5803 99.0001C70.1103 99.0001 78.9385 95.5079 85.3912 89.5515L72.7871 79.7661C69.2949 82.1061 64.8276 83.4888 59.5803 83.4888C49.4226 83.4888 40.8249 76.6283 37.7581 67.4102H24.7285V77.5147C31.1458 90.2606 44.3349 99.0001 59.5803 99.0001Z" fill="#34A853"/>
<path fill-rule="evenodd" clip-rule="evenodd" d="M37.7578 67.4089C36.9778 65.0689 36.5346 62.5694 36.5346 59.9989C36.5346 57.4285 36.9778 54.9289 37.7578 52.5889V42.4844H24.7283C22.0869 47.7494 20.5801 53.7057 20.5801 59.9989C20.5801 66.2921 22.0869 72.2485 24.7283 77.5135L37.7578 67.4089Z" fill="#FBBC05"/>
<path fill-rule="evenodd" clip-rule="evenodd" d="M59.5803 36.5114C65.3062 36.5114 70.4471 38.4791 74.4889 42.3436L85.6749 31.1577C78.9208 24.8645 70.0926 21 59.5803 21C44.3349 21 31.1458 29.7395 24.7285 42.4855L37.7581 52.59C40.8249 43.3718 49.4226 36.5114 59.5803 36.5114Z" fill="#EA4335"/>
</svg>
