<svg width="82" height="81" viewBox="0 0 82 81" fill="none" xmlns="http://www.w3.org/2000/svg">
<path d="M29.5 68.75C29.5 75.1038 23.06 80.25 15.125 80.25C7.19 80.25 0.75 75.1038 0.75 68.75C0.75 62.402 7.19 57.25 15.125 57.25C23.06 57.25 29.5 62.402 29.5 68.75ZM81.25 57.25C81.25 63.6038 74.81 68.75 66.875 68.75C58.94 68.75 52.5 63.6038 52.5 57.25C52.5 50.8962 58.94 45.75 66.875 45.75C74.81 45.75 81.25 50.8962 81.25 57.25Z" fill="#BDFF00"/>
<path fill-rule="evenodd" clip-rule="evenodd" d="M75.5 57.25V5.5H81.25V57.25H75.5ZM29.5 11.25V68.75H23.75V11.25H29.5Z" fill="#BDFF00"/>
<path d="M23.75 10.7055C23.75 9.28008 24.2794 7.90543 25.2357 6.84828C26.1919 5.79112 27.5067 5.12684 28.925 4.98429L74.925 0.384292C75.7246 0.303932 76.5321 0.392062 77.2955 0.642998C78.0589 0.893934 78.7613 1.3021 79.3572 1.84118C79.9532 2.38025 80.4296 3.03826 80.7556 3.77276C81.0816 4.50726 81.25 5.30194 81.25 6.10554V11.2518L23.75 17.0018V10.7055Z" fill="#BDFF00"/>
</svg>
