<svg width="120" height="120" viewBox="0 0 120 120" fill="none" xmlns="http://www.w3.org/2000/svg">
<rect width="120" height="120" rx="60" fill="#0A66C2"/>
<path d="M88.1279 27H31.8721C30.5799 27 29.3407 27.5133 28.427 28.427C27.5133 29.3407 27 30.5799 27 31.8721V88.1279C27 89.4201 27.5133 90.6593 28.427 91.573C29.3407 92.4867 30.5799 93 31.8721 93H88.1279C89.4201 93 90.6593 92.4867 91.573 91.573C92.4867 90.6593 93 89.4201 93 88.1279V31.8721C93 30.5799 92.4867 29.3407 91.573 28.427C90.6593 27.5133 89.4201 27 88.1279 27ZM46.6717 83.2237H36.7488V51.7042H46.6717V83.2237ZM41.7033 47.3363C40.5778 47.3299 39.4793 46.9903 38.5465 46.3602C37.6138 45.7302 36.8886 44.838 36.4624 43.7961C36.0363 42.7543 35.9283 41.6096 36.1521 40.5065C36.3759 39.4034 36.9215 38.3913 37.7199 37.5979C38.5184 36.8045 39.534 36.2655 40.6385 36.0488C41.7431 35.832 42.8871 35.9474 43.9261 36.3802C44.9652 36.813 45.8527 37.544 46.4768 38.4807C47.1008 39.4175 47.4334 40.5182 47.4325 41.6438C47.4431 42.3973 47.3019 43.1454 47.0173 43.8432C46.7327 44.5411 46.3104 45.1745 45.7758 45.7057C45.2412 46.2369 44.6051 46.655 43.9054 46.9352C43.2057 47.2153 42.4568 47.3517 41.7033 47.3363ZM83.2467 83.2513H73.3283V66.0317C73.3283 60.9533 71.1696 59.3858 68.3829 59.3858C65.4404 59.3858 62.5529 61.6042 62.5529 66.16V83.2513H52.63V51.7271H62.1725V56.095H62.3008C63.2588 54.1563 66.6138 50.8425 71.7333 50.8425C77.27 50.8425 83.2513 54.1288 83.2513 63.7538L83.2467 83.2513Z" fill="white"/>
</svg>
