<svg width="120" height="120" viewBox="0 0 120 120" fill="none" xmlns="http://www.w3.org/2000/svg">
<rect width="120" height="120" rx="60" fill="url(#paint0_linear_4025_2981)"/>
<path fill-rule="evenodd" clip-rule="evenodd" d="M27.1601 59.3677C44.6513 51.7471 56.3149 46.7231 62.1507 44.2957C78.8134 37.3652 82.2757 36.1613 84.5325 36.1215C85.0288 36.1128 86.1386 36.2358 86.8575 36.8191C87.4645 37.3116 87.6315 37.977 87.7114 38.444C87.7913 38.911 87.8908 39.9747 87.8117 40.806C86.9088 50.2934 83.0017 73.3168 81.014 83.9429C80.1729 88.4392 78.5168 89.9467 76.9136 90.0943C73.4292 90.4149 70.7834 87.7916 67.4087 85.5794C62.1279 82.1178 59.1446 79.9629 54.0187 76.585C48.0948 72.6813 51.935 70.5357 55.311 67.0293C56.1945 66.1116 71.5465 52.1479 71.8436 50.8811C71.8808 50.7227 71.9153 50.1322 71.5645 49.8203C71.2136 49.5085 70.6958 49.6151 70.3222 49.6999C69.7925 49.8202 61.3564 55.3961 45.0138 66.4278C42.6193 68.0721 40.4503 68.8732 38.5071 68.8313C36.3647 68.785 32.2438 67.62 29.1803 66.6241C25.4228 65.4027 22.4364 64.757 22.6964 62.6826C22.8319 61.6022 24.3198 60.4972 27.1601 59.3677Z" fill="white"/>
<defs>
<linearGradient id="paint0_linear_4025_2981" x1="60" y1="0" x2="60" y2="119.11" gradientUnits="userSpaceOnUse">
<stop stop-color="#2AABEE"/>
<stop offset="1" stop-color="#229ED9"/>
</linearGradient>
</defs>
</svg>
