<svg width="174" height="174" viewBox="0 0 174 174" fill="none" xmlns="http://www.w3.org/2000/svg">
<path d="M173.702 86.8512C173.702 134.818 134.818 173.702 86.8512 173.702C38.8846 173.702 0 134.818 0 86.8512C0 38.8846 38.8846 0 86.8512 0C134.818 0 173.702 38.8846 173.702 86.8512ZM24.3183 86.8512C24.3183 121.387 52.3153 149.384 86.8512 149.384C121.387 149.384 149.384 121.387 149.384 86.8512C149.384 52.3153 121.387 24.3183 86.8512 24.3183C52.3153 24.3183 24.3183 52.3153 24.3183 86.8512Z" fill="white"/>
<path d="M86.8512 173.702C66.1717 173.702 46.1707 166.324 30.4459 152.893C14.721 139.463 4.30428 120.863 1.06928 100.438C-2.16571 80.0128 1.99335 59.1038 12.7984 41.4716C23.6034 23.8394 40.3453 10.6411 60.0127 4.2508C79.6802 -2.13953 100.982 -1.30256 120.088 6.61116C139.193 14.5249 154.848 28.996 164.236 47.4216C173.625 65.8472 176.13 87.0181 171.303 107.126C166.475 127.234 154.631 144.96 137.901 157.115L123.607 137.441C135.653 128.69 144.181 115.927 147.656 101.449C151.132 86.9714 149.328 71.7283 142.568 58.4619C135.809 45.1955 124.537 34.7763 110.782 29.0784C97.0256 23.3805 81.6881 22.7779 67.5275 27.3789C53.367 31.98 41.3128 41.4827 33.5332 54.1779C25.7536 66.8731 22.759 81.9276 25.0882 96.6335C27.4174 111.339 34.9175 124.732 46.2394 134.402C57.5613 144.071 71.962 149.384 86.8512 149.384L86.8512 173.702Z" fill="#BDFF00"/>
<path d="M62.6509 84.6992L65.6629 81.1292C65.3709 81.3212 65.0249 81.4172 64.6249 81.4172C64.1929 81.4172 63.7829 81.3352 63.3949 81.1712C63.0109 81.0032 62.6669 80.7672 62.3629 80.4632C62.0629 80.1552 61.8249 79.7932 61.6489 79.3772C61.4769 78.9612 61.3909 78.5032 61.3909 78.0032C61.3909 77.3672 61.5349 76.7932 61.8229 76.2812C62.1109 75.7692 62.5229 75.3632 63.0589 75.0632C63.5949 74.7632 64.2289 74.6132 64.9609 74.6132C65.7049 74.6132 66.3549 74.7672 66.9109 75.0752C67.4709 75.3832 67.9069 75.7992 68.2189 76.3232C68.5349 76.8472 68.6929 77.4332 68.6929 78.0812C68.6929 78.4292 68.6629 78.7472 68.6029 79.0352C68.5469 79.3192 68.4609 79.5892 68.3449 79.8452C68.2289 80.0972 68.0869 80.3452 67.9189 80.5892C67.7509 80.8332 67.5609 81.0832 67.3489 81.3392L64.5589 84.6992H62.6509ZM65.0329 80.0492C65.3169 80.0492 65.5809 79.9972 65.8249 79.8932C66.0689 79.7852 66.2829 79.6352 66.4669 79.4432C66.6509 79.2512 66.7949 79.0312 66.8989 78.7832C67.0069 78.5312 67.0609 78.2612 67.0609 77.9732C67.0609 77.5812 66.9729 77.2332 66.7969 76.9292C66.6249 76.6212 66.3869 76.3812 66.0829 76.2092C65.7789 76.0332 65.4289 75.9452 65.0329 75.9452C64.6369 75.9452 64.2829 76.0332 63.9709 76.2092C63.6629 76.3852 63.4189 76.6272 63.2389 76.9352C63.0589 77.2392 62.9689 77.5852 62.9689 77.9732C62.9689 78.3652 63.0589 78.7192 63.2389 79.0352C63.4229 79.3472 63.6689 79.5952 63.9769 79.7792C64.2889 79.9592 64.6409 80.0492 65.0329 80.0492ZM74.1938 84.8912C73.3858 84.8912 72.6758 84.6772 72.0638 84.2492C71.4558 83.8172 70.9818 83.2152 70.6418 82.4432C70.3058 81.6712 70.1378 80.7752 70.1378 79.7552C70.1378 78.7312 70.3058 77.8352 70.6418 77.0672C70.9818 76.2952 71.4558 75.6952 72.0638 75.2672C72.6758 74.8352 73.3858 74.6192 74.1938 74.6192C75.0058 74.6192 75.7158 74.8352 76.3238 75.2672C76.9318 75.6952 77.4038 76.2952 77.7398 77.0672C78.0798 77.8352 78.2498 78.7312 78.2498 79.7552C78.2498 80.7752 78.0798 81.6712 77.7398 82.4432C77.4038 83.2152 76.9318 83.8172 76.3238 84.2492C75.7158 84.6772 75.0058 84.8912 74.1938 84.8912ZM74.1938 83.4992C74.6818 83.4992 75.1038 83.3472 75.4598 83.0432C75.8198 82.7392 76.0978 82.3072 76.2938 81.7472C76.4938 81.1832 76.5938 80.5192 76.5938 79.7552C76.5938 78.9872 76.4938 78.3232 76.2938 77.7632C76.0978 77.2032 75.8198 76.7712 75.4598 76.4672C75.1038 76.1632 74.6818 76.0112 74.1938 76.0112C73.7098 76.0112 73.2878 76.1632 72.9278 76.4672C72.5678 76.7712 72.2878 77.2032 72.0878 77.7632C71.8918 78.3232 71.7938 78.9872 71.7938 79.7552C71.7938 80.5192 71.8918 81.1832 72.0878 81.7472C72.2878 82.3072 72.5678 82.7392 72.9278 83.0432C73.2878 83.3472 73.7098 83.4992 74.1938 83.4992ZM82.385 79.3472C81.901 79.3472 81.465 79.2472 81.077 79.0472C80.689 78.8472 80.381 78.5692 80.153 78.2132C79.929 77.8572 79.817 77.4472 79.817 76.9832C79.817 76.5192 79.929 76.1092 80.153 75.7532C80.381 75.3972 80.689 75.1192 81.077 74.9192C81.465 74.7192 81.901 74.6192 82.385 74.6192C82.865 74.6192 83.299 74.7192 83.687 74.9192C84.075 75.1192 84.381 75.3972 84.605 75.7532C84.833 76.1092 84.947 76.5192 84.947 76.9832C84.947 77.4472 84.833 77.8572 84.605 78.2132C84.381 78.5692 84.075 78.8472 83.687 79.0472C83.299 79.2472 82.865 79.3472 82.385 79.3472ZM81.941 84.6992L87.701 74.7992H88.745L82.985 84.6992H81.941ZM82.385 78.4172C82.653 78.4172 82.895 78.3552 83.111 78.2312C83.327 78.1072 83.499 77.9392 83.627 77.7272C83.755 77.5112 83.819 77.2632 83.819 76.9832C83.819 76.7032 83.755 76.4552 83.627 76.2392C83.499 76.0232 83.327 75.8552 83.111 75.7352C82.895 75.6112 82.653 75.5492 82.385 75.5492C82.113 75.5492 81.869 75.6112 81.653 75.7352C81.437 75.8592 81.265 76.0292 81.137 76.2452C81.013 76.4572 80.951 76.7032 80.951 76.9832C80.951 77.2632 81.013 77.5112 81.137 77.7272C81.265 77.9392 81.437 78.1072 81.653 78.2312C81.869 78.3552 82.113 78.4172 82.385 78.4172ZM88.301 84.8852C87.817 84.8852 87.381 84.7852 86.993 84.5852C86.605 84.3852 86.297 84.1072 86.069 83.7512C85.845 83.3952 85.733 82.9852 85.733 82.5212C85.733 82.0572 85.845 81.6472 86.069 81.2912C86.297 80.9352 86.605 80.6572 86.993 80.4572C87.381 80.2572 87.817 80.1572 88.301 80.1572C88.785 80.1572 89.221 80.2572 89.609 80.4572C89.997 80.6572 90.303 80.9352 90.527 81.2912C90.755 81.6472 90.869 82.0572 90.869 82.5212C90.869 82.9852 90.755 83.3952 90.527 83.7512C90.303 84.1072 89.997 84.3852 89.609 84.5852C89.221 84.7852 88.785 84.8852 88.301 84.8852ZM88.301 83.9552C88.569 83.9552 88.811 83.8932 89.027 83.7692C89.243 83.6452 89.415 83.4752 89.543 83.2592C89.671 83.0432 89.735 82.7952 89.735 82.5152C89.735 82.2352 89.671 81.9892 89.543 81.7772C89.415 81.5612 89.243 81.3932 89.027 81.2732C88.811 81.1492 88.569 81.0872 88.301 81.0872C88.033 81.0872 87.791 81.1492 87.575 81.2732C87.359 81.3932 87.187 81.5612 87.059 81.7772C86.931 81.9892 86.867 82.2352 86.867 82.5152C86.867 82.7952 86.931 83.0432 87.059 83.2592C87.187 83.4752 87.359 83.6452 87.575 83.7692C87.791 83.8932 88.033 83.9552 88.301 83.9552Z" fill="white"/>
</svg>
